<mxfile host="app.diagrams.net" modified="2022-11-05T21:47:41.122Z" agent="5.0 (Windows NT 10.0; Win64; x64) AppleWebKit/537.36 (KHTML, like Gecko) Chrome/107.0.0.0 Safari/537.36" etag="mCRL8QcYF9XH5dOgLU6x" version="20.5.2" type="github">
  <diagram id="Hm3M5HYnKljUv4B752cp" name="Page-1">
    <mxGraphModel dx="1673" dy="887" grid="1" gridSize="10" guides="1" tooltips="1" connect="1" arrows="1" fold="1" page="1" pageScale="1" pageWidth="850" pageHeight="1100" math="0" shadow="0">
      <root>
        <mxCell id="0" />
        <mxCell id="1" parent="0" />
        <mxCell id="Y9H0lsLOEH5XJbz0mneS-13" value="" style="edgeStyle=orthogonalEdgeStyle;rounded=0;orthogonalLoop=1;jettySize=auto;html=1;" parent="1" source="Y9H0lsLOEH5XJbz0mneS-1" target="Y9H0lsLOEH5XJbz0mneS-7" edge="1">
          <mxGeometry relative="1" as="geometry" />
        </mxCell>
        <mxCell id="Y9H0lsLOEH5XJbz0mneS-1" value="Start" style="ellipse;whiteSpace=wrap;html=1;" parent="1" vertex="1">
          <mxGeometry x="300" y="210" width="110" height="70" as="geometry" />
        </mxCell>
        <mxCell id="Y9H0lsLOEH5XJbz0mneS-34" value="" style="edgeStyle=orthogonalEdgeStyle;rounded=0;orthogonalLoop=1;jettySize=auto;html=1;fontSize=24;" parent="1" edge="1">
          <mxGeometry relative="1" as="geometry">
            <mxPoint x="358.9999999999998" y="420" as="sourcePoint" />
            <mxPoint x="358.9999999999998" y="480" as="targetPoint" />
            <Array as="points">
              <mxPoint x="359" y="450" />
              <mxPoint x="359" y="450" />
            </Array>
          </mxGeometry>
        </mxCell>
        <mxCell id="Y9H0lsLOEH5XJbz0mneS-7" value="declar variabels:&lt;br&gt;&lt;a style=&quot;font-family: &amp;quot;Work Sans&amp;quot;, sans-serif; font-size: 12.75px; font-style: normal; font-variant-ligatures: normal; font-variant-caps: normal; letter-spacing: normal; orphans: 2; text-align: start; text-indent: 0px; text-transform: none; widows: 2; word-spacing: 0px; -webkit-text-stroke-width: 0px; box-sizing: border-box; background-color: transparent; transition: all 0.1s linear 0s; outline: 0px; text-decoration-line: none; text-shadow: none; font-weight: 700; border-bottom: none !important; box-shadow: none !important;&quot; href=&quot;https://cloudnativebasecamp.com/lessons/03-standard-deviation-model/&quot;&gt;&amp;nbsp;S&lt;/a&gt;B&lt;span style=&quot;color: rgb(19, 52, 83); font-family: &amp;quot;Work Sans&amp;quot;, sans-serif; font-size: 12.75px; font-style: normal; font-variant-ligatures: normal; font-variant-caps: normal; font-weight: 400; letter-spacing: normal; orphans: 2; text-align: start; text-indent: 0px; text-transform: none; widows: 2; word-spacing: 0px; -webkit-text-stroke-width: 0px; background-color: rgb(224, 252, 255); text-decoration-thickness: initial; text-decoration-style: initial; text-decoration-color: initial; float: none; display: inline !important;&quot;&gt;,Avg,N,&lt;/span&gt;&lt;br&gt;A,B ,i=0&lt;br&gt;,X[];" style="rounded=0;whiteSpace=wrap;html=1;" parent="1" vertex="1">
          <mxGeometry x="260" y="350" width="190" height="70" as="geometry" />
        </mxCell>
        <mxCell id="Y9H0lsLOEH5XJbz0mneS-20" value="" style="edgeStyle=orthogonalEdgeStyle;rounded=0;orthogonalLoop=1;jettySize=auto;html=1;" parent="1" source="Y9H0lsLOEH5XJbz0mneS-17" target="Y9H0lsLOEH5XJbz0mneS-19" edge="1">
          <mxGeometry relative="1" as="geometry" />
        </mxCell>
        <mxCell id="Y9H0lsLOEH5XJbz0mneS-17" value="Read N" style="shape=parallelogram;perimeter=parallelogramPerimeter;whiteSpace=wrap;html=1;fixedSize=1;" parent="1" vertex="1">
          <mxGeometry x="270" y="480" width="170" height="60" as="geometry" />
        </mxCell>
        <mxCell id="Y9H0lsLOEH5XJbz0mneS-26" value="Yes" style="edgeStyle=orthogonalEdgeStyle;rounded=0;orthogonalLoop=1;jettySize=auto;html=1;fontSize=11;" parent="1" source="Y9H0lsLOEH5XJbz0mneS-19" target="Y9H0lsLOEH5XJbz0mneS-25" edge="1">
          <mxGeometry relative="1" as="geometry" />
        </mxCell>
        <mxCell id="Y9H0lsLOEH5XJbz0mneS-45" value="No" style="edgeStyle=orthogonalEdgeStyle;rounded=0;orthogonalLoop=1;jettySize=auto;html=1;fontSize=24;entryX=0.5;entryY=0;entryDx=0;entryDy=0;" parent="1" source="Y9H0lsLOEH5XJbz0mneS-19" target="Y9H0lsLOEH5XJbz0mneS-65" edge="1">
          <mxGeometry relative="1" as="geometry">
            <mxPoint x="350" y="930" as="targetPoint" />
            <Array as="points">
              <mxPoint x="180" y="650" />
              <mxPoint x="180" y="930" />
              <mxPoint x="360" y="930" />
            </Array>
          </mxGeometry>
        </mxCell>
        <mxCell id="Y9H0lsLOEH5XJbz0mneS-19" value="i &amp;lt; N" style="rhombus;whiteSpace=wrap;html=1;" parent="1" vertex="1">
          <mxGeometry x="295" y="610" width="110" height="80" as="geometry" />
        </mxCell>
        <mxCell id="Y9H0lsLOEH5XJbz0mneS-87" value="" style="edgeStyle=orthogonalEdgeStyle;rounded=0;orthogonalLoop=1;jettySize=auto;html=1;fontSize=11;" parent="1" source="Y9H0lsLOEH5XJbz0mneS-25" target="Y9H0lsLOEH5XJbz0mneS-86" edge="1">
          <mxGeometry relative="1" as="geometry" />
        </mxCell>
        <mxCell id="Y9H0lsLOEH5XJbz0mneS-25" value="Read x[i];&lt;br&gt;" style="shape=parallelogram;perimeter=parallelogramPerimeter;whiteSpace=wrap;html=1;fixedSize=1;" parent="1" vertex="1">
          <mxGeometry x="270" y="750" width="170" height="60" as="geometry" />
        </mxCell>
        <mxCell id="Y9H0lsLOEH5XJbz0mneS-41" style="edgeStyle=orthogonalEdgeStyle;rounded=0;orthogonalLoop=1;jettySize=auto;html=1;fontSize=24;" parent="1" source="Y9H0lsLOEH5XJbz0mneS-29" edge="1">
          <mxGeometry relative="1" as="geometry">
            <mxPoint x="360" y="580" as="targetPoint" />
            <Array as="points">
              <mxPoint x="620" y="580" />
              <mxPoint x="380" y="580" />
            </Array>
          </mxGeometry>
        </mxCell>
        <mxCell id="Y9H0lsLOEH5XJbz0mneS-29" value="I++" style="rounded=0;whiteSpace=wrap;html=1;fontSize=24;" parent="1" vertex="1">
          <mxGeometry x="560" y="740" width="120" height="60" as="geometry" />
        </mxCell>
        <mxCell id="Y9H0lsLOEH5XJbz0mneS-77" value="" style="edgeStyle=orthogonalEdgeStyle;rounded=0;orthogonalLoop=1;jettySize=auto;html=1;fontSize=11;" parent="1" source="Y9H0lsLOEH5XJbz0mneS-65" target="Y9H0lsLOEH5XJbz0mneS-70" edge="1">
          <mxGeometry relative="1" as="geometry" />
        </mxCell>
        <mxCell id="Y9H0lsLOEH5XJbz0mneS-65" value="avg=avg/N" style="rounded=0;whiteSpace=wrap;html=1;fontSize=24;" parent="1" vertex="1">
          <mxGeometry x="292.05" y="960" width="135" height="51" as="geometry" />
        </mxCell>
        <mxCell id="Y9H0lsLOEH5XJbz0mneS-68" value="Yes" style="edgeStyle=orthogonalEdgeStyle;rounded=0;orthogonalLoop=1;jettySize=auto;html=1;fontSize=11;" parent="1" source="Y9H0lsLOEH5XJbz0mneS-70" edge="1">
          <mxGeometry relative="1" as="geometry">
            <mxPoint x="357.0499999999998" y="1220" as="targetPoint" />
          </mxGeometry>
        </mxCell>
        <mxCell id="Y9H0lsLOEH5XJbz0mneS-69" value="No" style="edgeStyle=orthogonalEdgeStyle;rounded=0;orthogonalLoop=1;jettySize=auto;html=1;fontSize=24;" parent="1" source="Y9H0lsLOEH5XJbz0mneS-70" edge="1">
          <mxGeometry relative="1" as="geometry">
            <mxPoint x="372.05" y="1390" as="targetPoint" />
            <Array as="points">
              <mxPoint x="177.04999999999998" y="1110" />
              <mxPoint x="177.04999999999998" y="1350" />
            </Array>
          </mxGeometry>
        </mxCell>
        <mxCell id="Y9H0lsLOEH5XJbz0mneS-70" value="i &amp;lt; N" style="rhombus;whiteSpace=wrap;html=1;" parent="1" vertex="1">
          <mxGeometry x="304.55" y="1070" width="110" height="79" as="geometry" />
        </mxCell>
        <mxCell id="Y9H0lsLOEH5XJbz0mneS-71" style="edgeStyle=orthogonalEdgeStyle;rounded=0;orthogonalLoop=1;jettySize=auto;html=1;fontSize=24;entryX=0.5;entryY=1;entryDx=0;entryDy=0;" parent="1" target="Y9H0lsLOEH5XJbz0mneS-73" edge="1">
          <mxGeometry relative="1" as="geometry">
            <mxPoint x="557.0500000000001" y="1390" as="targetPoint" />
            <mxPoint x="432.05" y="1249.9999999999998" as="sourcePoint" />
            <Array as="points">
              <mxPoint x="612.0500000000001" y="1250" />
            </Array>
          </mxGeometry>
        </mxCell>
        <mxCell id="Y9H0lsLOEH5XJbz0mneS-72" style="edgeStyle=orthogonalEdgeStyle;rounded=0;orthogonalLoop=1;jettySize=auto;html=1;fontSize=24;" parent="1" source="Y9H0lsLOEH5XJbz0mneS-73" edge="1">
          <mxGeometry relative="1" as="geometry">
            <mxPoint x="370" y="1050" as="targetPoint" />
            <Array as="points">
              <mxPoint x="617.0500000000001" y="1050" />
            </Array>
          </mxGeometry>
        </mxCell>
        <mxCell id="Y9H0lsLOEH5XJbz0mneS-73" value="I++" style="rounded=0;whiteSpace=wrap;html=1;fontSize=24;" parent="1" vertex="1">
          <mxGeometry x="552.0500000000001" y="1120" width="120" height="59" as="geometry" />
        </mxCell>
        <mxCell id="Y9H0lsLOEH5XJbz0mneS-74" value="A+=sqr(x[i] -avg)" style="rounded=0;whiteSpace=wrap;html=1;fontSize=24;" parent="1" vertex="1">
          <mxGeometry x="250" y="1220" width="194.55" height="59" as="geometry" />
        </mxCell>
        <mxCell id="Y9H0lsLOEH5XJbz0mneS-80" value="" style="edgeStyle=orthogonalEdgeStyle;rounded=0;orthogonalLoop=1;jettySize=auto;html=1;fontSize=11;" parent="1" source="Y9H0lsLOEH5XJbz0mneS-78" target="Y9H0lsLOEH5XJbz0mneS-79" edge="1">
          <mxGeometry relative="1" as="geometry" />
        </mxCell>
        <mxCell id="Y9H0lsLOEH5XJbz0mneS-78" value="b = A / n" style="rounded=0;whiteSpace=wrap;html=1;fontSize=24;" parent="1" vertex="1">
          <mxGeometry x="287.05" y="1390" width="170" height="59" as="geometry" />
        </mxCell>
        <mxCell id="Y9H0lsLOEH5XJbz0mneS-83" style="edgeStyle=orthogonalEdgeStyle;rounded=0;orthogonalLoop=1;jettySize=auto;html=1;entryX=0.56;entryY=-0.014;entryDx=0;entryDy=0;entryPerimeter=0;fontSize=11;" parent="1" source="Y9H0lsLOEH5XJbz0mneS-79" target="Y9H0lsLOEH5XJbz0mneS-82" edge="1">
          <mxGeometry relative="1" as="geometry">
            <Array as="points">
              <mxPoint x="372" y="1584" />
              <mxPoint x="370" y="1584" />
            </Array>
          </mxGeometry>
        </mxCell>
        <mxCell id="Y9H0lsLOEH5XJbz0mneS-79" value="sd=sqrt(b)" style="rounded=0;whiteSpace=wrap;html=1;fontSize=24;" parent="1" vertex="1">
          <mxGeometry x="287.05" y="1500" width="170" height="59" as="geometry" />
        </mxCell>
        <mxCell id="Y9H0lsLOEH5XJbz0mneS-85" value="" style="edgeStyle=orthogonalEdgeStyle;rounded=0;orthogonalLoop=1;jettySize=auto;html=1;fontSize=11;" parent="1" source="Y9H0lsLOEH5XJbz0mneS-82" target="Y9H0lsLOEH5XJbz0mneS-84" edge="1">
          <mxGeometry relative="1" as="geometry" />
        </mxCell>
        <mxCell id="Y9H0lsLOEH5XJbz0mneS-82" value="print sd" style="shape=parallelogram;perimeter=parallelogramPerimeter;whiteSpace=wrap;html=1;fixedSize=1;" parent="1" vertex="1">
          <mxGeometry x="274.55" y="1610" width="170" height="59" as="geometry" />
        </mxCell>
        <mxCell id="Y9H0lsLOEH5XJbz0mneS-84" value="End" style="ellipse;whiteSpace=wrap;html=1;fontSize=11;" parent="1" vertex="1">
          <mxGeometry x="302.05" y="1730" width="115" height="59" as="geometry" />
        </mxCell>
        <mxCell id="Y9H0lsLOEH5XJbz0mneS-88" style="edgeStyle=orthogonalEdgeStyle;rounded=0;orthogonalLoop=1;jettySize=auto;html=1;entryX=0.598;entryY=1.065;entryDx=0;entryDy=0;entryPerimeter=0;fontSize=11;" parent="1" source="Y9H0lsLOEH5XJbz0mneS-86" target="Y9H0lsLOEH5XJbz0mneS-29" edge="1">
          <mxGeometry relative="1" as="geometry" />
        </mxCell>
        <mxCell id="Y9H0lsLOEH5XJbz0mneS-86" value="Avg += x[i]" style="rounded=0;whiteSpace=wrap;html=1;fontSize=24;" parent="1" vertex="1">
          <mxGeometry x="270" y="850" width="170" height="59" as="geometry" />
        </mxCell>
      </root>
    </mxGraphModel>
  </diagram>
</mxfile>
